# xmcd
# 
# Track frame offsets:
#     150
#     13275
#     46227
#     94100
#     116675
# 
# Disc length: 2579
# 
# Revision: 14
# Processed by: cddbd v1.5.2PL0 Copyright (c) Steve Scherf et al.
# Submitted via: fre:ac v1.0.31
# 
DISCID=3a0a1105
DTITLE=Miles Davis - At Carnegie Hall [CD2]
DYEAR=1961
DGENRE=Jazz
TTITLE0=Someday My Prince Will Come
TTITLE1=Oleo
TTITLE2=No Blues
TTITLE3=I Thought About You
TTITLE4=En aranjuez con tu amor (Adagio from "Concierto de aranjuez")
EXTD=Miles Davis, trumpet\nHank Mobley, tenor sax\nWynton Kelly, piano\nPaul Chambers, bass\nJimmy Cobb, drums\nwith Gil Evans and His 21 Piece Orchestra
EXTT0=
EXTT1=
EXTT2=
EXTT3=
EXTT4=
PLAYORDER=
